<?xml version="1.0" encoding="UTF-8" standalone="no"?>
<!DOCTYPE svg PUBLIC "-//W3C//DTD SVG 1.1//EN" "http://www.w3.org/Graphics/SVG/1.1/DTD/svg11.dtd">
<svg xmlns="http://www.w3.org/2000/svg" version="1.1" viewBox="0.00 0.00 1128.00 191.00">
<g stroke-width="2.00" fill="none" stroke-linecap="butt">
<path stroke="#72d1f5" vector-effect="non-scaling-stroke" d="
  M 71.52 0.00
  Q 71.97 0.24 72.59 0.33
  Q 72.99 0.38 72.99 0.79
  L 72.99 127.78"
/>
<path stroke="#98ddf9" vector-effect="non-scaling-stroke" d="
  M 72.99 127.78
  L 72.60 129.72"
/>
<path stroke="#b3e7fd" vector-effect="non-scaling-stroke" d="
  M 72.60 129.72
  Q 72.55 128.81 72.14 128.23
  A 0.99 0.97 -17.3 0 0 71.34 127.82
  L 0.00 127.77"
/>
<path stroke="#20b0ea" vector-effect="non-scaling-stroke" d="
  M 144.37 0.00
  L 145.19 0.24
  Q 145.65 0.37 145.65 0.85
  Q 145.63 61.29 145.56 121.73
  Q 145.56 121.98 145.36 124.76
  Q 145.20 127.00 146.09 127.78"
/>
<path stroke="#65ccf3" vector-effect="non-scaling-stroke" d="
  M 146.09 127.78
  L 72.99 127.78"
/>
<path stroke="#009ae3" vector-effect="non-scaling-stroke" d="
  M 218.69 0.00
  Q 218.80 28.91 218.71 57.82
  C 218.69 63.27 218.23 68.94 218.34 74.50
  Q 218.47 80.74 218.39 87.00
  Q 218.16 104.36 218.30 121.73
  Q 218.30 122.72 217.98 124.73
  Q 217.72 126.38 217.96 127.79"
/>
<path stroke="#46bcee" vector-effect="non-scaling-stroke" d="
  M 217.96 127.79
  L 146.09 127.78"
/>
<path stroke="#30aeea" vector-effect="non-scaling-stroke" d="
  M 291.24 0.00
  L 291.26 63.94"
/>
<path stroke="#0190d9" vector-effect="non-scaling-stroke" d="
  M 291.26 63.94
  Q 291.29 65.60 291.58 67.34
  C 292.12 70.56 291.41 73.28 291.45 76.44
  Q 291.77 98.41 291.59 120.69
  C 291.57 122.13 292.23 123.57 291.31 125.34
  Q 290.64 126.63 290.03 127.87"
/>
<path stroke="#46b6ec" vector-effect="non-scaling-stroke" d="
  M 290.03 127.87
  L 217.96 127.79"
/>
<path stroke="#75d1f5" vector-effect="non-scaling-stroke" d="
  M 363.61 0.00
  L 363.82 63.90"
/>
<path stroke="#30abe2" vector-effect="non-scaling-stroke" d="
  M 363.82 63.90
  L 291.26 63.94"
/>
<path stroke="#75d1f5" vector-effect="non-scaling-stroke" d="
  M 509.38 0.00
  L 509.44 63.89"
/>
<path stroke="#46b2e4" vector-effect="non-scaling-stroke" d="
  M 509.44 63.89
  L 363.82 63.90"
/>
<path stroke="#30b5ec" vector-effect="non-scaling-stroke" d="
  M 582.27 0.00
  L 582.42 56.76"
/>
<path stroke="#afe4f9" vector-effect="non-scaling-stroke" d="
  M 582.42 56.76
  Q 578.87 59.37 576.30 63.94"
/>
<path stroke="#30abe2" vector-effect="non-scaling-stroke" d="
  M 576.30 63.94
  L 509.44 63.89"
/>
<path stroke="#0196db" vector-effect="non-scaling-stroke" d="
  M 655.14 0.00
  L 655.30 52.52"
/>
<path stroke="#80d0f2" vector-effect="non-scaling-stroke" d="
  M 655.30 52.52
  L 631.41 52.49
  Q 630.69 52.49 630.70 53.21
  L 630.82 63.46"
/>
<path stroke="#0196db" vector-effect="non-scaling-stroke" d="
  M 630.82 63.46
  L 628.49 63.42
  Q 627.94 63.41 627.78 63.94
  L 627.31 65.47"
/>
<path stroke="#80d0f2" vector-effect="non-scaling-stroke" d="
  M 627.31 65.47
  L 627.40 53.17
  A 0.65 0.65 0.0 0 0 626.75 52.52
  Q 611.61 52.49 596.25 52.54
  Q 588.85 52.57 582.42 56.76"
/>
<path stroke="#0196db" vector-effect="non-scaling-stroke" d="
  M 435.82 191.00
  Q 437.22 189.55 436.96 186.15
  Q 436.72 183.17 436.71 180.92
  Q 436.57 157.37 436.82 130.05
  Q 436.84 127.83 434.61 127.85
  Q 404.27 128.04 374.52 127.89
  C 371.55 127.88 368.61 127.57 365.64 127.51
  A 0.94 0.90 36.8 0 0 365.31 127.55
  L 363.79 128.02"
/>
<path stroke="#30abe2" vector-effect="non-scaling-stroke" d="
  M 363.79 128.02
  Q 363.71 127.95 363.59 127.86
  Q 363.50 127.79 363.38 127.79
  L 291.61 127.86"
/>
<path stroke="#46b2e4" vector-effect="non-scaling-stroke" d="
  M 291.61 127.86
  Q 291.01 128.10 290.03 127.87"
/>
<path stroke="#80c6e8" vector-effect="non-scaling-stroke" d="
  M 576.30 63.94
  Q 574.17 69.40 574.17 71.75
  Q 574.21 95.86 574.08 119.61
  Q 574.03 129.59 575.53 133.35
  C 578.98 142.03 586.71 146.90 596.00 146.86
  Q 612.60 146.79 626.69 146.83
  A 0.61 0.60 -89.5 0 0 627.30 146.22
  L 627.28 121.22
  A 0.45 0.45 0.0 0 0 626.83 120.77
  Q 616.89 120.85 606.30 120.79
  C 599.01 120.75 598.68 110.71 606.52 110.72
  Q 626.34 110.77 647.02 110.71
  A 0.48 0.47 -0.0 0 0 647.50 110.24
  L 647.51 89.21
  A 0.45 0.44 -90.0 0 0 647.07 88.76
  Q 627.19 88.72 606.02 88.76
  C 599.02 88.77 599.00 78.61 606.26 78.66
  Q 617.35 78.73 626.65 78.56
  A 0.66 0.66 0.0 0 0 627.30 77.90
  L 627.31 65.47"
/>
<path stroke="#80c6e8" vector-effect="non-scaling-stroke" d="
  M 630.82 63.46
  L 630.71 77.63
  A 1.01 1.01 0.0 0 0 631.72 78.64
  L 653.00 78.72
  A 4.73 4.73 0.0 0 1 657.71 83.45
  Q 657.72 99.42 657.70 113.75
  C 657.69 117.50 657.24 120.63 652.67 120.70
  Q 642.02 120.87 631.29 120.77
  A 0.48 0.48 0.0 0 0 630.80 121.25
  L 630.80 146.27
  A 0.62 0.62 0.0 0 0 631.42 146.89
  Q 646.98 146.76 662.66 146.84
  Q 670.90 146.88 676.72 141.85
  C 682.11 137.19 684.14 131.32 684.09 124.21
  Q 683.91 101.53 684.08 76.78
  Q 684.12 70.16 682.59 66.03
  Q 678.83 55.94 667.27 52.98
  Q 664.35 52.24 655.30 52.52"
/>
<path stroke="#80c6e8" vector-effect="non-scaling-stroke" d="
  M 716.68 77.16
  L 740.43 77.16
  A 0.59 0.59 0.0 0 0 741.02 76.57
  L 741.01 70.00
  Q 741.01 69.49 740.50 69.49
  L 710.96 69.50
  Q 707.67 69.50 707.67 72.79
  L 707.67 124.58
  A 3.17 3.17 0.0 0 0 710.83 127.74
  L 741.09 127.82
  Q 741.76 127.82 741.75 127.15
  L 741.68 120.87
  Q 741.67 120.08 740.87 120.08
  L 716.89 120.12
  Q 716.15 120.13 716.14 119.39
  L 715.98 102.78
  A 0.49 0.49 0.0 0 1 716.47 102.28
  L 739.33 102.22
  A 0.71 0.71 0.0 0 0 740.04 101.51
  L 740.00 95.00
  A 0.50 0.50 0.0 0 0 739.50 94.51
  L 716.96 94.50
  A 0.80 0.79 -0.0 0 1 716.16 93.71
  L 716.03 77.82
  Q 716.02 77.16 716.68 77.16"
/>
<path stroke="#80c6e8" vector-effect="non-scaling-stroke" d="
  M 837.30 77.74
  A 4.62 4.62 0.0 0 0 832.68 73.12
  A 4.62 4.62 0.0 0 0 828.06 77.74
  A 4.62 4.62 0.0 0 0 832.68 82.36
  A 4.62 4.62 0.0 0 0 837.30 77.74"
/>
<path stroke="#80c6e8" vector-effect="non-scaling-stroke" d="
  M 1102.87 93.64
  A 5.96 5.96 0.0 0 0 1096.91 87.68
  A 5.96 5.96 0.0 0 0 1090.95 93.64
  A 5.96 5.96 0.0 0 0 1096.91 99.60
  A 5.96 5.96 0.0 0 0 1102.87 93.64"
/>
<path stroke="#80c6e8" vector-effect="non-scaling-stroke" d="
  M 758.35 92.72
  Q 756.78 94.20 757.11 92.07
  Q 757.30 90.82 757.01 89.74
  Q 756.86 89.20 756.30 89.20
  L 749.74 89.25
  A 0.51 0.51 0.0 0 0 749.23 89.76
  L 749.23 127.27
  Q 749.23 127.81 749.77 127.81
  L 756.53 127.81
  Q 757.12 127.81 757.12 127.23
  Q 757.15 115.12 757.11 102.59
  C 757.09 97.21 763.53 94.74 768.07 95.34
  C 772.62 95.95 773.75 100.62 773.76 104.42
  Q 773.79 116.20 773.76 127.04
  Q 773.76 127.80 774.53 127.80
  L 780.96 127.79
  A 0.80 0.79 -89.6 0 0 781.75 127.00
  Q 781.85 114.67 781.64 103.89
  C 781.50 96.90 779.40 90.94 771.86 89.03
  Q 764.32 87.12 758.35 92.72"
/>
<path stroke="#80c6e8" vector-effect="non-scaling-stroke" d="
  M 898.39 96.29
  L 898.33 89.76
  Q 898.33 89.20 897.76 89.20
  L 891.23 89.25
  Q 890.47 89.25 890.47 90.02
  L 890.48 127.26
  A 0.54 0.54 0.0 0 0 891.02 127.80
  L 897.75 127.83
  A 0.57 0.57 0.0 0 0 898.32 127.27
  Q 898.41 117.59 898.41 107.50
  Q 898.41 101.52 902.97 97.71
  C 906.72 94.56 910.49 96.32 913.65 99.06
  Q 914.71 99.99 915.44 98.78
  L 918.33 93.97
  Q 919.01 92.83 917.97 92.01
  C 914.69 89.43 910.40 87.36 906.36 89.38
  C 902.79 91.16 901.42 93.59 899.01 96.51
  Q 898.40 97.25 898.39 96.29"
/>
<path stroke="#80c6e8" vector-effect="non-scaling-stroke" d="
  M 973.01 98.74
  A 0.61 0.60 -82.9 0 1 973.58 98.29
  Q 979.81 98.10 985.56 98.32
  Q 990.14 98.51 988.00 94.45
  Q 987.59 93.67 987.17 92.89
  Q 984.94 88.66 980.17 88.60
  Q 972.43 88.51 970.84 96.24
  Q 969.73 101.61 972.79 105.56
  C 976.22 109.99 982.69 110.23 987.35 107.21
  Q 988.30 106.60 988.27 105.47
  L 988.25 104.82
  Q 988.22 103.77 987.39 104.41
  C 981.94 108.59 975.20 107.62 973.03 100.36
  Q 972.78 99.54 973.01 98.74"
/>
<path stroke="#80c6e8" vector-effect="non-scaling-stroke" d="
  M 994.87 91.00
  L 994.48 89.09
  A 0.51 0.50 -13.8 0 0 993.84 88.71
  L 993.46 88.82
  A 1.24 1.23 -8.2 0 0 992.57 90.00
  L 992.57 107.81
  Q 992.56 108.82 993.57 108.84
  L 993.95 108.85
  Q 994.65 108.87 994.67 108.17
  Q 994.83 103.19 994.68 97.34
  C 994.60 93.98 997.36 91.45 1000.41 91.02
  C 1004.96 90.37 1006.41 93.87 1006.32 97.62
  Q 1006.20 103.07 1006.29 108.20
  Q 1006.30 108.96 1007.05 108.89
  L 1007.98 108.81
  A 0.83 0.83 0.0 0 0 1008.75 107.98
  Q 1008.76 101.71 1008.63 95.73
  C 1008.48 88.52 1000.31 86.07 995.60 91.20
  Q 995.04 91.81 994.87 91.00"
/>
<path stroke="#80c6e8" vector-effect="non-scaling-stroke" d="
  M 1017.02 98.24
  L 1029.94 98.22
  A 1.04 1.04 0.0 0 0 1030.98 97.11
  C 1030.11 84.60 1012.02 86.09 1013.09 99.34
  Q 1013.88 109.12 1023.55 109.20
  Q 1026.71 109.22 1029.79 107.21
  Q 1030.72 106.59 1030.81 105.48
  L 1030.84 105.09
  Q 1030.94 103.89 1029.87 104.45
  C 1028.47 105.19 1027.12 106.20 1025.55 106.51
  Q 1017.76 108.08 1015.46 100.33
  Q 1014.84 98.24 1017.02 98.24"
/>
<path stroke="#80c6e8" vector-effect="non-scaling-stroke" d="
  M 1037.83 92.96
  A 0.42 0.42 0.0 0 1 1037.09 92.63
  Q 1037.36 90.97 1037.03 89.28
  A 0.64 0.64 0.0 0 0 1036.27 88.78
  L 1035.97 88.85
  A 1.19 1.17 84.4 0 0 1035.03 90.01
  L 1035.04 107.93
  A 0.95 0.95 0.0 0 0 1035.99 108.88
  L 1036.37 108.88
  A 0.80 0.79 -88.9 0 0 1037.16 108.11
  Q 1037.34 103.81 1037.17 99.11
  C 1037.05 95.67 1039.30 93.07 1041.92 91.38
  A 2.95 2.95 0.0 0 1 1045.19 91.42
  L 1046.91 92.59
  Q 1047.73 93.15 1048.32 92.36
  Q 1048.84 91.66 1048.40 90.62
  A 1.46 1.43 6.6 0 0 1047.90 90.00
  C 1043.30 86.73 1040.76 89.42 1037.83 92.96"
/>
<path stroke="#80c6e8" vector-effect="non-scaling-stroke" d="
  M 1052.79 108.95
  C 1046.86 110.43 1047.59 117.19 1053.23 118.44
  C 1057.87 119.47 1069.01 119.02 1065.83 110.70
  C 1065.27 109.22 1063.62 108.21 1062.11 108.03
  Q 1058.79 107.62 1055.09 107.15
  Q 1053.44 106.94 1053.68 105.24
  A 1.55 1.55 0.0 0 1 1054.86 103.95
  C 1059.72 102.81 1065.15 101.93 1064.49 95.25
  Q 1064.28 93.20 1063.01 91.53
  A 0.45 0.45 0.0 0 1 1063.53 90.83
  Q 1065.14 91.45 1066.34 90.28
  A 0.75 0.75 0.0 0 1 1067.53 90.47
  L 1074.54 103.95
  A 1.98 1.98 0.0 0 1 1074.56 105.70
  L 1068.58 118.17
  Q 1068.28 118.80 1068.92 119.09
  Q 1069.73 119.46 1070.70 118.31
  Q 1071.19 117.72 1071.53 117.04
  L 1085.02 90.04
  A 0.84 0.83 33.6 0 0 1084.81 89.02
  Q 1084.54 88.80 1084.20 88.79
  Q 1082.98 88.78 1082.45 89.87
  L 1076.84 101.38
  A 0.61 0.61 0.0 0 1 1075.75 101.40
  L 1069.59 89.55
  A 1.02 1.02 0.0 0 0 1068.70 89.00
  Q 1062.97 88.86 1057.42 89.02
  Q 1053.27 89.14 1051.45 91.53
  C 1049.46 94.15 1049.12 99.14 1052.37 101.26
  Q 1053.01 101.68 1053.63 102.16
  Q 1054.22 102.61 1053.58 102.98
  C 1052.13 103.81 1051.18 104.64 1051.22 106.50
  A 1.22 1.21 17.2 0 0 1051.72 107.44
  L 1052.91 108.31
  Q 1053.53 108.76 1052.79 108.95"
/>
<path stroke="#80c6e8" vector-effect="non-scaling-stroke" d="
  M 855.45 127.23
  C 872.05 132.66 884.65 120.17 881.41 103.85
  C 879.35 93.43 870.81 89.64 861.00 89.34
  Q 853.92 89.13 847.26 89.21
  A 0.53 0.52 89.4 0 0 846.75 89.74
  L 846.74 146.44
  A 0.96 0.95 0.3 0 0 847.69 147.39
  L 853.73 147.45
  Q 854.66 147.46 854.66 146.52
  L 854.67 127.80
  Q 854.67 126.98 855.45 127.23"
/>
<path stroke="#80c6e8" vector-effect="non-scaling-stroke" d="
  M 795.00 124.38
  Q 795.85 125.27 794.66 125.60
  C 785.79 128.03 783.55 138.49 791.13 143.86
  C 798.23 148.88 812.79 148.96 819.53 143.01
  C 822.88 140.06 823.71 134.75 821.81 130.86
  Q 819.54 126.21 813.38 124.83
  Q 808.74 123.78 804.02 122.58
  Q 802.04 122.07 800.51 120.83
  A 1.71 1.70 -46.5 0 1 800.45 118.22
  Q 801.51 117.28 802.85 117.06
  C 809.01 116.02 814.91 115.17 817.91 108.89
  Q 821.07 102.27 816.25 96.40
  A 0.56 0.56 0.0 0 1 816.70 95.48
  L 822.23 95.59
  Q 822.82 95.61 822.82 95.02
  L 822.80 89.98
  Q 822.80 89.23 822.06 89.23
  Q 814.06 89.18 805.76 89.33
  C 797.97 89.47 790.24 93.42 790.08 102.21
  C 789.98 107.78 792.33 111.44 796.89 114.15
  Q 797.98 114.80 796.82 115.31
  Q 790.51 118.08 793.41 122.97
  A 1.74 1.69 1.3 0 0 793.97 123.54
  Q 794.54 123.90 795.00 124.38"
/>
<path stroke="#80c6e8" vector-effect="non-scaling-stroke" d="
  M 836.5627 89.7769
  A 0.56 0.56 0.0 0 0 836.0037 89.2159
  L 829.2237 89.2041
  A 0.56 0.56 0.0 0 0 828.6627 89.7631
  L 828.5973 127.2631
  A 0.56 0.56 0.0 0 0 829.1563 127.8241
  L 835.9363 127.8359
  A 0.56 0.56 0.0 0 0 836.4973 127.2769
  L 836.5627 89.7769"
/>
<path stroke="#80c6e8" vector-effect="non-scaling-stroke" d="
  M 960.8895 108.7749
  A 20.78 19.84 -0.4 0 0 939.9715 89.0805
  A 20.78 19.84 -0.4 0 0 919.3305 109.0651
  A 20.78 19.84 -0.4 0 0 940.2485 128.7595
  A 20.78 19.84 -0.4 0 0 960.8895 108.7749"
/>
<path stroke="#80d0f2" vector-effect="non-scaling-stroke" d="
  M 1097.07 94.70
  Q 1095.99 93.95 1096.70 93.80
  Q 1097.80 93.58 1097.87 92.68
  A 1.20 1.20 0.0 0 0 1095.85 91.70
  Q 1095.04 92.45 1095.61 93.38
  Q 1095.82 93.72 1095.80 94.08
  Q 1095.78 94.37 1095.61 94.73"
/>
<path stroke="#80c6e8" vector-effect="non-scaling-stroke" d="
  M 1095.61 94.73
  Q 1094.90 96.13 1094.89 97.56
  Q 1094.88 98.17 1095.48 98.31
  C 1099.60 99.28 1103.30 95.29 1101.27 91.39
  C 1099.37 87.73 1093.26 88.01 1092.25 92.18
  Q 1091.58 94.94 1093.30 97.04
  Q 1094.30 98.27 1094.29 96.69
  L 1094.25 91.52
  A 0.91 0.90 -4.8 0 1 1095.02 90.62
  Q 1096.75 90.35 1098.36 90.78
  Q 1099.07 90.97 1099.18 91.70
  Q 1099.34 92.73 1098.87 93.63
  Q 1098.60 94.15 1098.75 94.72
  L 1099.23 96.45
  Q 1099.51 97.51 1098.66 96.82
  Q 1097.62 95.97 1097.07 94.70"
/>
<path stroke="#0196db" vector-effect="non-scaling-stroke" d="
  M 1095.61 94.73
  Q 1096.14 94.56 1097.07 94.70"
/>
<path stroke="#80c6e8" vector-effect="non-scaling-stroke" d="
  M 973.89 96.31
  L 985.41 96.21
  A 0.13 0.13 0.0 0 0 985.54 96.08
  L 985.54 96.02
  A 5.73 5.19 -0.5 0 0 979.77 90.88
  L 979.45 90.88
  A 5.73 5.19 -0.5 0 0 973.76 96.12
  L 973.76 96.18
  A 0.13 0.13 0.0 0 0 973.89 96.31"
/>
<path stroke="#80c6e8" vector-effect="non-scaling-stroke" d="
  M 1016.42 96.29
  L 1027.92 96.21
  A 0.12 0.12 0.0 0 0 1028.04 96.09
  L 1028.04 96.03
  A 5.70 5.16 -0.4 0 0 1022.30 90.91
  L 1021.96 90.91
  A 5.70 5.16 -0.4 0 0 1016.30 96.11
  L 1016.30 96.17
  A 0.12 0.12 0.0 0 0 1016.42 96.29"
/>
<path stroke="#80c6e8" vector-effect="non-scaling-stroke" d="
  M 1062.30 95.99
  A 5.03 5.03 0.0 0 0 1057.27 90.96
  A 5.03 5.03 0.0 0 0 1052.24 95.99
  A 5.03 5.03 0.0 0 0 1057.27 101.02
  A 5.03 5.03 0.0 0 0 1062.30 95.99"
/>
<path stroke="#80c6e8" vector-effect="non-scaling-stroke" d="
  M 1064.2251 113.0628
  A 6.70 3.56 -2.2 0 0 1057.3933 109.7626
  A 6.70 3.56 -2.2 0 0 1050.8349 113.5772
  A 6.70 3.56 -2.2 0 0 1057.6667 116.8774
  A 6.70 3.56 -2.2 0 0 1064.2251 113.0628"
/>
<path stroke="#80c6e8" vector-effect="non-scaling-stroke" d="
  M 855.24 120.27
  C 875.62 129.12 880.99 97.66 863.48 96.84
  Q 859.53 96.66 855.32 96.60
  Q 854.68 96.59 854.68 97.23
  L 854.69 119.44
  Q 854.69 120.03 855.24 120.27"
/>
<path stroke="#80c6e8" vector-effect="non-scaling-stroke" d="
  M 811.9446 102.5338
  A 7.38 6.83 -3.7 0 0 804.1392 96.1942
  A 7.38 6.83 -3.7 0 0 797.2154 103.4862
  A 7.38 6.83 -3.7 0 0 805.0208 109.8258
  A 7.38 6.83 -3.7 0 0 811.9446 102.5338"
/>
<path stroke="#80c6e8" vector-effect="non-scaling-stroke" d="
  M 815.1247 135.8448
  A 10.66 5.81 1.8 0 0 804.6525 129.7029
  A 10.66 5.81 1.8 0 0 793.8153 135.1752
  A 10.66 5.81 1.8 0 0 804.2875 141.3171
  A 10.66 5.81 1.8 0 0 815.1247 135.8448"
/>
<path stroke="#80c6e8" vector-effect="non-scaling-stroke" d="
  M 952.6361 110.8469
  A 12.74 12.57 9.2 0 0 942.0697 96.4017
  A 12.74 12.57 9.2 0 0 927.4839 106.7731
  A 12.74 12.57 9.2 0 0 938.0503 121.2183
  A 12.74 12.57 9.2 0 0 952.6361 110.8469"
/>
<path stroke="#a6e2fb" vector-effect="non-scaling-stroke" d="
  M 72.60 129.72
  L 73.13 191.00"
/>
<path stroke="#30b5ec" vector-effect="non-scaling-stroke" d="
  M 363.92 191.00
  L 363.79 128.02"
/>
<path stroke="#75d1f5" vector-effect="non-scaling-stroke" d="
  M 291.61 127.86
  C 291.41 130.43 291.07 132.89 291.09 135.38
  Q 291.29 158.82 291.11 182.25
  Q 291.08 186.71 291.87 191.00"
/>
</g>
<path fill="#a5e2fb" d="
  M 0.00 0.00
  L 71.52 0.00
  Q 71.97 0.24 72.59 0.33
  Q 72.99 0.38 72.99 0.79
  L 72.99 127.78
  L 72.60 129.72
  Q 72.55 128.81 72.14 128.23
  A 0.99 0.97 -17.3 0 0 71.34 127.82
  L 0.00 127.77
  L 0.00 0.00
  Z"
/>
<path fill="#3fbfef" d="
  M 71.52 0.00
  L 144.37 0.00
  L 145.19 0.24
  Q 145.65 0.37 145.65 0.85
  Q 145.63 61.29 145.56 121.73
  Q 145.56 121.98 145.36 124.76
  Q 145.20 127.00 146.09 127.78
  L 72.99 127.78
  L 72.99 0.79
  Q 72.99 0.38 72.59 0.33
  Q 71.97 0.24 71.52 0.00
  Z"
/>
<path fill="#00a0e5" d="
  M 144.37 0.00
  L 218.69 0.00
  Q 218.80 28.91 218.71 57.82
  C 218.69 63.27 218.23 68.94 218.34 74.50
  Q 218.47 80.74 218.39 87.00
  Q 218.16 104.36 218.30 121.73
  Q 218.30 122.72 217.98 124.73
  Q 217.72 126.38 217.96 127.79
  L 146.09 127.78
  Q 145.20 127.00 145.36 124.76
  Q 145.56 121.98 145.56 121.73
  Q 145.63 61.29 145.65 0.85
  Q 145.65 0.37 145.19 0.24
  L 144.37 0.00
  Z"
/>
<path fill="#0093e0" d="
  M 218.69 0.00
  L 291.24 0.00
  L 291.26 63.94
  Q 291.29 65.60 291.58 67.34
  C 292.12 70.56 291.41 73.28 291.45 76.44
  Q 291.77 98.41 291.59 120.69
  C 291.57 122.13 292.23 123.57 291.31 125.34
  Q 290.64 126.63 290.03 127.87
  L 217.96 127.79
  Q 217.72 126.38 217.98 124.73
  Q 218.30 122.72 218.30 121.73
  Q 218.16 104.36 218.39 87.00
  Q 218.47 80.74 218.34 74.50
  C 218.23 68.94 218.69 63.27 218.71 57.82
  Q 218.80 28.91 218.69 0.00
  Z"
/>
<path fill="#5fc9f3" d="
  M 291.24 0.00
  L 363.61 0.00
  L 363.82 63.90
  L 291.26 63.94
  L 291.24 0.00
  Z"
/>
<path fill="#8bd8f7" d="
  M 363.61 0.00
  L 509.38 0.00
  L 509.44 63.89
  L 363.82 63.90
  L 363.61 0.00
  Z"
/>
<path fill="#5fc9f3" d="
  M 509.38 0.00
  L 582.27 0.00
  L 582.42 56.76
  Q 578.87 59.37 576.30 63.94
  L 509.44 63.89
  L 509.38 0.00
  Z"
/>
<path fill="#00a0e5" d="
  M 582.27 0.00
  L 655.14 0.00
  L 655.30 52.52
  L 631.41 52.49
  Q 630.69 52.49 630.70 53.21
  L 630.82 63.46
  L 628.49 63.42
  Q 627.94 63.41 627.78 63.94
  L 627.31 65.47
  L 627.40 53.17
  A 0.65 0.65 0.0 0 0 626.75 52.52
  Q 611.61 52.49 596.25 52.54
  Q 588.85 52.57 582.42 56.76
  L 582.27 0.00
  Z"
/>
<path fill="#018cd1" d="
  M 655.14 0.00
  L 1128.00 0.00
  L 1128.00 191.00
  L 435.82 191.00
  Q 437.22 189.55 436.96 186.15
  Q 436.72 183.17 436.71 180.92
  Q 436.57 157.37 436.82 130.05
  Q 436.84 127.83 434.61 127.85
  Q 404.27 128.04 374.52 127.89
  C 371.55 127.88 368.61 127.57 365.64 127.51
  A 0.94 0.90 36.8 0 0 365.31 127.55
  L 363.79 128.02
  Q 363.71 127.95 363.59 127.86
  Q 363.50 127.79 363.38 127.79
  L 291.61 127.86
  Q 291.01 128.10 290.03 127.87
  Q 290.64 126.63 291.31 125.34
  C 292.23 123.57 291.57 122.13 291.59 120.69
  Q 291.77 98.41 291.45 76.44
  C 291.41 73.28 292.12 70.56 291.58 67.34
  Q 291.29 65.60 291.26 63.94
  L 363.82 63.90
  L 509.44 63.89
  L 576.30 63.94
  Q 574.17 69.40 574.17 71.75
  Q 574.21 95.86 574.08 119.61
  Q 574.03 129.59 575.53 133.35
  C 578.98 142.03 586.71 146.90 596.00 146.86
  Q 612.60 146.79 626.69 146.83
  A 0.61 0.60 -89.5 0 0 627.30 146.22
  L 627.28 121.22
  A 0.45 0.45 0.0 0 0 626.83 120.77
  Q 616.89 120.85 606.30 120.79
  C 599.01 120.75 598.68 110.71 606.52 110.72
  Q 626.34 110.77 647.02 110.71
  A 0.48 0.47 -0.0 0 0 647.50 110.24
  L 647.51 89.21
  A 0.45 0.44 -90.0 0 0 647.07 88.76
  Q 627.19 88.72 606.02 88.76
  C 599.02 88.77 599.00 78.61 606.26 78.66
  Q 617.35 78.73 626.65 78.56
  A 0.66 0.66 0.0 0 0 627.30 77.90
  L 627.31 65.47
  L 627.78 63.94
  Q 627.94 63.41 628.49 63.42
  L 630.82 63.46
  L 630.71 77.63
  A 1.01 1.01 0.0 0 0 631.72 78.64
  L 653.00 78.72
  A 4.73 4.73 0.0 0 1 657.71 83.45
  Q 657.72 99.42 657.70 113.75
  C 657.69 117.50 657.24 120.63 652.67 120.70
  Q 642.02 120.87 631.29 120.77
  A 0.48 0.48 0.0 0 0 630.80 121.25
  L 630.80 146.27
  A 0.62 0.62 0.0 0 0 631.42 146.89
  Q 646.98 146.76 662.66 146.84
  Q 670.90 146.88 676.72 141.85
  C 682.11 137.19 684.14 131.32 684.09 124.21
  Q 683.91 101.53 684.08 76.78
  Q 684.12 70.16 682.59 66.03
  Q 678.83 55.94 667.27 52.98
  Q 664.35 52.24 655.30 52.52
  L 655.14 0.00
  Z
  M 716.68 77.16
  L 740.43 77.16
  A 0.59 0.59 0.0 0 0 741.02 76.57
  L 741.01 70.00
  Q 741.01 69.49 740.50 69.49
  L 710.96 69.50
  Q 707.67 69.50 707.67 72.79
  L 707.67 124.58
  A 3.17 3.17 0.0 0 0 710.83 127.74
  L 741.09 127.82
  Q 741.76 127.82 741.75 127.15
  L 741.68 120.87
  Q 741.67 120.08 740.87 120.08
  L 716.89 120.12
  Q 716.15 120.13 716.14 119.39
  L 715.98 102.78
  A 0.49 0.49 0.0 0 1 716.47 102.28
  L 739.33 102.22
  A 0.71 0.71 0.0 0 0 740.04 101.51
  L 740.00 95.00
  A 0.50 0.50 0.0 0 0 739.50 94.51
  L 716.96 94.50
  A 0.80 0.79 -0.0 0 1 716.16 93.71
  L 716.03 77.82
  Q 716.02 77.16 716.68 77.16
  Z
  M 837.30 77.74
  A 4.62 4.62 0.0 0 0 832.68 73.12
  A 4.62 4.62 0.0 0 0 828.06 77.74
  A 4.62 4.62 0.0 0 0 832.68 82.36
  A 4.62 4.62 0.0 0 0 837.30 77.74
  Z
  M 1102.87 93.64
  A 5.96 5.96 0.0 0 0 1096.91 87.68
  A 5.96 5.96 0.0 0 0 1090.95 93.64
  A 5.96 5.96 0.0 0 0 1096.91 99.60
  A 5.96 5.96 0.0 0 0 1102.87 93.64
  Z
  M 758.35 92.72
  Q 756.78 94.20 757.11 92.07
  Q 757.30 90.82 757.01 89.74
  Q 756.86 89.20 756.30 89.20
  L 749.74 89.25
  A 0.51 0.51 0.0 0 0 749.23 89.76
  L 749.23 127.27
  Q 749.23 127.81 749.77 127.81
  L 756.53 127.81
  Q 757.12 127.81 757.12 127.23
  Q 757.15 115.12 757.11 102.59
  C 757.09 97.21 763.53 94.74 768.07 95.34
  C 772.62 95.95 773.75 100.62 773.76 104.42
  Q 773.79 116.20 773.76 127.04
  Q 773.76 127.80 774.53 127.80
  L 780.96 127.79
  A 0.80 0.79 -89.6 0 0 781.75 127.00
  Q 781.85 114.67 781.64 103.89
  C 781.50 96.90 779.40 90.94 771.86 89.03
  Q 764.32 87.12 758.35 92.72
  Z
  M 898.39 96.29
  L 898.33 89.76
  Q 898.33 89.20 897.76 89.20
  L 891.23 89.25
  Q 890.47 89.25 890.47 90.02
  L 890.48 127.26
  A 0.54 0.54 0.0 0 0 891.02 127.80
  L 897.75 127.83
  A 0.57 0.57 0.0 0 0 898.32 127.27
  Q 898.41 117.59 898.41 107.50
  Q 898.41 101.52 902.97 97.71
  C 906.72 94.56 910.49 96.32 913.65 99.06
  Q 914.71 99.99 915.44 98.78
  L 918.33 93.97
  Q 919.01 92.83 917.97 92.01
  C 914.69 89.43 910.40 87.36 906.36 89.38
  C 902.79 91.16 901.42 93.59 899.01 96.51
  Q 898.40 97.25 898.39 96.29
  Z
  M 973.01 98.74
  A 0.61 0.60 -82.9 0 1 973.58 98.29
  Q 979.81 98.10 985.56 98.32
  Q 990.14 98.51 988.00 94.45
  Q 987.59 93.67 987.17 92.89
  Q 984.94 88.66 980.17 88.60
  Q 972.43 88.51 970.84 96.24
  Q 969.73 101.61 972.79 105.56
  C 976.22 109.99 982.69 110.23 987.35 107.21
  Q 988.30 106.60 988.27 105.47
  L 988.25 104.82
  Q 988.22 103.77 987.39 104.41
  C 981.94 108.59 975.20 107.62 973.03 100.36
  Q 972.78 99.54 973.01 98.74
  Z
  M 994.87 91.00
  L 994.48 89.09
  A 0.51 0.50 -13.8 0 0 993.84 88.71
  L 993.46 88.82
  A 1.24 1.23 -8.2 0 0 992.57 90.00
  L 992.57 107.81
  Q 992.56 108.82 993.57 108.84
  L 993.95 108.85
  Q 994.65 108.87 994.67 108.17
  Q 994.83 103.19 994.68 97.34
  C 994.60 93.98 997.36 91.45 1000.41 91.02
  C 1004.96 90.37 1006.41 93.87 1006.32 97.62
  Q 1006.20 103.07 1006.29 108.20
  Q 1006.30 108.96 1007.05 108.89
  L 1007.98 108.81
  A 0.83 0.83 0.0 0 0 1008.75 107.98
  Q 1008.76 101.71 1008.63 95.73
  C 1008.48 88.52 1000.31 86.07 995.60 91.20
  Q 995.04 91.81 994.87 91.00
  Z
  M 1017.02 98.24
  L 1029.94 98.22
  A 1.04 1.04 0.0 0 0 1030.98 97.11
  C 1030.11 84.60 1012.02 86.09 1013.09 99.34
  Q 1013.88 109.12 1023.55 109.20
  Q 1026.71 109.22 1029.79 107.21
  Q 1030.72 106.59 1030.81 105.48
  L 1030.84 105.09
  Q 1030.94 103.89 1029.87 104.45
  C 1028.47 105.19 1027.12 106.20 1025.55 106.51
  Q 1017.76 108.08 1015.46 100.33
  Q 1014.84 98.24 1017.02 98.24
  Z
  M 1037.83 92.96
  A 0.42 0.42 0.0 0 1 1037.09 92.63
  Q 1037.36 90.97 1037.03 89.28
  A 0.64 0.64 0.0 0 0 1036.27 88.78
  L 1035.97 88.85
  A 1.19 1.17 84.4 0 0 1035.03 90.01
  L 1035.04 107.93
  A 0.95 0.95 0.0 0 0 1035.99 108.88
  L 1036.37 108.88
  A 0.80 0.79 -88.9 0 0 1037.16 108.11
  Q 1037.34 103.81 1037.17 99.11
  C 1037.05 95.67 1039.30 93.07 1041.92 91.38
  A 2.95 2.95 0.0 0 1 1045.19 91.42
  L 1046.91 92.59
  Q 1047.73 93.15 1048.32 92.36
  Q 1048.84 91.66 1048.40 90.62
  A 1.46 1.43 6.6 0 0 1047.90 90.00
  C 1043.30 86.73 1040.76 89.42 1037.83 92.96
  Z
  M 1052.79 108.95
  C 1046.86 110.43 1047.59 117.19 1053.23 118.44
  C 1057.87 119.47 1069.01 119.02 1065.83 110.70
  C 1065.27 109.22 1063.62 108.21 1062.11 108.03
  Q 1058.79 107.62 1055.09 107.15
  Q 1053.44 106.94 1053.68 105.24
  A 1.55 1.55 0.0 0 1 1054.86 103.95
  C 1059.72 102.81 1065.15 101.93 1064.49 95.25
  Q 1064.28 93.20 1063.01 91.53
  A 0.45 0.45 0.0 0 1 1063.53 90.83
  Q 1065.14 91.45 1066.34 90.28
  A 0.75 0.75 0.0 0 1 1067.53 90.47
  L 1074.54 103.95
  A 1.98 1.98 0.0 0 1 1074.56 105.70
  L 1068.58 118.17
  Q 1068.28 118.80 1068.92 119.09
  Q 1069.73 119.46 1070.70 118.31
  Q 1071.19 117.72 1071.53 117.04
  L 1085.02 90.04
  A 0.84 0.83 33.6 0 0 1084.81 89.02
  Q 1084.54 88.80 1084.20 88.79
  Q 1082.98 88.78 1082.45 89.87
  L 1076.84 101.38
  A 0.61 0.61 0.0 0 1 1075.75 101.40
  L 1069.59 89.55
  A 1.02 1.02 0.0 0 0 1068.70 89.00
  Q 1062.97 88.86 1057.42 89.02
  Q 1053.27 89.14 1051.45 91.53
  C 1049.46 94.15 1049.12 99.14 1052.37 101.26
  Q 1053.01 101.68 1053.63 102.16
  Q 1054.22 102.61 1053.58 102.98
  C 1052.13 103.81 1051.18 104.64 1051.22 106.50
  A 1.22 1.21 17.2 0 0 1051.72 107.44
  L 1052.91 108.31
  Q 1053.53 108.76 1052.79 108.95
  Z
  M 855.45 127.23
  C 872.05 132.66 884.65 120.17 881.41 103.85
  C 879.35 93.43 870.81 89.64 861.00 89.34
  Q 853.92 89.13 847.26 89.21
  A 0.53 0.52 89.4 0 0 846.75 89.74
  L 846.74 146.44
  A 0.96 0.95 0.3 0 0 847.69 147.39
  L 853.73 147.45
  Q 854.66 147.46 854.66 146.52
  L 854.67 127.80
  Q 854.67 126.98 855.45 127.23
  Z
  M 795.00 124.38
  Q 795.85 125.27 794.66 125.60
  C 785.79 128.03 783.55 138.49 791.13 143.86
  C 798.23 148.88 812.79 148.96 819.53 143.01
  C 822.88 140.06 823.71 134.75 821.81 130.86
  Q 819.54 126.21 813.38 124.83
  Q 808.74 123.78 804.02 122.58
  Q 802.04 122.07 800.51 120.83
  A 1.71 1.70 -46.5 0 1 800.45 118.22
  Q 801.51 117.28 802.85 117.06
  C 809.01 116.02 814.91 115.17 817.91 108.89
  Q 821.07 102.27 816.25 96.40
  A 0.56 0.56 0.0 0 1 816.70 95.48
  L 822.23 95.59
  Q 822.82 95.61 822.82 95.02
  L 822.80 89.98
  Q 822.80 89.23 822.06 89.23
  Q 814.06 89.18 805.76 89.33
  C 797.97 89.47 790.24 93.42 790.08 102.21
  C 789.98 107.78 792.33 111.44 796.89 114.15
  Q 797.98 114.80 796.82 115.31
  Q 790.51 118.08 793.41 122.97
  A 1.74 1.69 1.3 0 0 793.97 123.54
  Q 794.54 123.90 795.00 124.38
  Z
  M 836.5627 89.7769
  A 0.56 0.56 0.0 0 0 836.0037 89.2159
  L 829.2237 89.2041
  A 0.56 0.56 0.0 0 0 828.6627 89.7631
  L 828.5973 127.2631
  A 0.56 0.56 0.0 0 0 829.1563 127.8241
  L 835.9363 127.8359
  A 0.56 0.56 0.0 0 0 836.4973 127.2769
  L 836.5627 89.7769
  Z
  M 960.8895 108.7749
  A 20.78 19.84 -0.4 0 0 939.9715 89.0805
  A 20.78 19.84 -0.4 0 0 919.3305 109.0651
  A 20.78 19.84 -0.4 0 0 940.2485 128.7595
  A 20.78 19.84 -0.4 0 0 960.8895 108.7749
  Z"
/>
<path fill="#ffffff" d="
  M 627.31 65.47
  L 627.30 77.90
  A 0.66 0.66 0.0 0 1 626.65 78.56
  Q 617.35 78.73 606.26 78.66
  C 599.00 78.61 599.02 88.77 606.02 88.76
  Q 627.19 88.72 647.07 88.76
  A 0.45 0.44 90.0 0 1 647.51 89.21
  L 647.50 110.24
  A 0.48 0.47 -0.0 0 1 647.02 110.71
  Q 626.34 110.77 606.52 110.72
  C 598.68 110.71 599.01 120.75 606.30 120.79
  Q 616.89 120.85 626.83 120.77
  A 0.45 0.45 0.0 0 1 627.28 121.22
  L 627.30 146.22
  A 0.61 0.60 -89.5 0 1 626.69 146.83
  Q 612.60 146.79 596.00 146.86
  C 586.71 146.90 578.98 142.03 575.53 133.35
  Q 574.03 129.59 574.08 119.61
  Q 574.21 95.86 574.17 71.75
  Q 574.17 69.40 576.30 63.94
  Q 578.87 59.37 582.42 56.76
  Q 588.85 52.57 596.25 52.54
  Q 611.61 52.49 626.75 52.52
  A 0.65 0.65 0.0 0 1 627.40 53.17
  L 627.31 65.47
  Z"
/>
<path fill="#ffffff" d="
  M 655.30 52.52
  Q 664.35 52.24 667.27 52.98
  Q 678.83 55.94 682.59 66.03
  Q 684.12 70.16 684.08 76.78
  Q 683.91 101.53 684.09 124.21
  C 684.14 131.32 682.11 137.19 676.72 141.85
  Q 670.90 146.88 662.66 146.84
  Q 646.98 146.76 631.42 146.89
  A 0.62 0.62 0.0 0 1 630.80 146.27
  L 630.80 121.25
  A 0.48 0.48 0.0 0 1 631.29 120.77
  Q 642.02 120.87 652.67 120.70
  C 657.24 120.63 657.69 117.50 657.70 113.75
  Q 657.72 99.42 657.71 83.45
  A 4.73 4.73 0.0 0 0 653.00 78.72
  L 631.72 78.64
  A 1.01 1.01 0.0 0 1 630.71 77.63
  L 630.82 63.46
  L 630.70 53.21
  Q 630.69 52.49 631.41 52.49
  L 655.30 52.52
  Z"
/>
<path fill="#ffffff" d="
  M 716.03 77.82
  L 716.16 93.71
  A 0.80 0.79 0.0 0 0 716.96 94.50
  L 739.50 94.51
  A 0.50 0.50 0.0 0 1 740.00 95.00
  L 740.04 101.51
  A 0.71 0.71 0.0 0 1 739.33 102.22
  L 716.47 102.28
  A 0.49 0.49 0.0 0 0 715.98 102.78
  L 716.14 119.39
  Q 716.15 120.13 716.89 120.12
  L 740.87 120.08
  Q 741.67 120.08 741.68 120.87
  L 741.75 127.15
  Q 741.76 127.82 741.09 127.82
  L 710.83 127.74
  A 3.17 3.17 0.0 0 1 707.67 124.58
  L 707.67 72.79
  Q 707.67 69.50 710.96 69.50
  L 740.50 69.49
  Q 741.01 69.49 741.01 70.00
  L 741.02 76.57
  A 0.59 0.59 0.0 0 1 740.43 77.16
  L 716.68 77.16
  Q 716.02 77.16 716.03 77.82
  Z"
/>
<circle fill="#ffffff" cx="832.68" cy="77.74" r="4.62"/>
<path fill="#ffffff" d="
  M 1102.87 93.64
  A 5.96 5.96 0.0 0 1 1096.91 99.60
  A 5.96 5.96 0.0 0 1 1090.95 93.64
  A 5.96 5.96 0.0 0 1 1096.91 87.68
  A 5.96 5.96 0.0 0 1 1102.87 93.64
  Z
  M 1097.07 94.70
  Q 1095.99 93.95 1096.70 93.80
  Q 1097.80 93.58 1097.87 92.68
  A 1.20 1.20 0.0 0 0 1095.85 91.70
  Q 1095.04 92.45 1095.61 93.38
  Q 1095.82 93.72 1095.80 94.08
  Q 1095.78 94.37 1095.61 94.73
  Q 1094.90 96.13 1094.89 97.56
  Q 1094.88 98.17 1095.48 98.31
  C 1099.60 99.28 1103.30 95.29 1101.27 91.39
  C 1099.37 87.73 1093.26 88.01 1092.25 92.18
  Q 1091.58 94.94 1093.30 97.04
  Q 1094.30 98.27 1094.29 96.69
  L 1094.25 91.52
  A 0.91 0.90 -4.8 0 1 1095.02 90.62
  Q 1096.75 90.35 1098.36 90.78
  Q 1099.07 90.97 1099.18 91.70
  Q 1099.34 92.73 1098.87 93.63
  Q 1098.60 94.15 1098.75 94.72
  L 1099.23 96.45
  Q 1099.51 97.51 1098.66 96.82
  Q 1097.62 95.97 1097.07 94.70
  Z"
/>
<path fill="#ffffff" d="
  M 758.35 92.72
  Q 764.32 87.12 771.86 89.03
  C 779.40 90.94 781.50 96.90 781.64 103.89
  Q 781.85 114.67 781.75 127.00
  A 0.80 0.79 -89.6 0 1 780.96 127.79
  L 774.53 127.80
  Q 773.76 127.80 773.76 127.04
  Q 773.79 116.20 773.76 104.42
  C 773.75 100.62 772.62 95.95 768.07 95.34
  C 763.53 94.74 757.09 97.21 757.11 102.59
  Q 757.15 115.12 757.12 127.23
  Q 757.12 127.81 756.53 127.81
  L 749.77 127.81
  Q 749.23 127.81 749.23 127.27
  L 749.23 89.76
  A 0.51 0.51 0.0 0 1 749.74 89.25
  L 756.30 89.20
  Q 756.86 89.20 757.01 89.74
  Q 757.30 90.82 757.11 92.07
  Q 756.78 94.20 758.35 92.72
  Z"
/>
<path fill="#ffffff" d="
  M 898.39 96.29
  Q 898.40 97.25 899.01 96.51
  C 901.42 93.59 902.79 91.16 906.36 89.38
  C 910.40 87.36 914.69 89.43 917.97 92.01
  Q 919.01 92.83 918.33 93.97
  L 915.44 98.78
  Q 914.71 99.99 913.65 99.06
  C 910.49 96.32 906.72 94.56 902.97 97.71
  Q 898.41 101.52 898.41 107.50
  Q 898.41 117.59 898.32 127.27
  A 0.57 0.57 0.0 0 1 897.75 127.83
  L 891.02 127.80
  A 0.54 0.54 0.0 0 1 890.48 127.26
  L 890.47 90.02
  Q 890.47 89.25 891.23 89.25
  L 897.76 89.20
  Q 898.33 89.20 898.33 89.76
  L 898.39 96.29
  Z"
/>
<path fill="#ffffff" d="
  M 973.01 98.74
  Q 972.78 99.54 973.03 100.36
  C 975.20 107.62 981.94 108.59 987.39 104.41
  Q 988.22 103.77 988.25 104.82
  L 988.27 105.47
  Q 988.30 106.60 987.35 107.21
  C 982.69 110.23 976.22 109.99 972.79 105.56
  Q 969.73 101.61 970.84 96.24
  Q 972.43 88.51 980.17 88.60
  Q 984.94 88.66 987.17 92.89
  Q 987.59 93.67 988.00 94.45
  Q 990.14 98.51 985.56 98.32
  Q 979.81 98.10 973.58 98.29
  A 0.61 0.60 -82.9 0 0 973.01 98.74
  Z
  M 973.89 96.31
  L 985.41 96.21
  A 0.13 0.13 0.0 0 0 985.54 96.08
  L 985.54 96.02
  A 5.73 5.19 -0.5 0 0 979.77 90.88
  L 979.45 90.88
  A 5.73 5.19 -0.5 0 0 973.76 96.12
  L 973.76 96.18
  A 0.13 0.13 0.0 0 0 973.89 96.31
  Z"
/>
<path fill="#ffffff" d="
  M 995.60 91.20
  C 1000.31 86.07 1008.48 88.52 1008.63 95.73
  Q 1008.76 101.71 1008.75 107.98
  A 0.83 0.83 0.0 0 1 1007.98 108.81
  L 1007.05 108.89
  Q 1006.30 108.96 1006.29 108.20
  Q 1006.20 103.07 1006.32 97.62
  C 1006.41 93.87 1004.96 90.37 1000.41 91.02
  C 997.36 91.45 994.60 93.98 994.68 97.34
  Q 994.83 103.19 994.67 108.17
  Q 994.65 108.87 993.95 108.85
  L 993.57 108.84
  Q 992.56 108.82 992.57 107.81
  L 992.57 90.00
  A 1.24 1.23 -8.2 0 1 993.46 88.82
  L 993.84 88.71
  A 0.51 0.50 -13.8 0 1 994.48 89.09
  L 994.87 91.00
  Q 995.04 91.81 995.60 91.20
  Z"
/>
<path fill="#ffffff" d="
  M 1017.02 98.24
  Q 1014.84 98.24 1015.46 100.33
  Q 1017.76 108.08 1025.55 106.51
  C 1027.12 106.20 1028.47 105.19 1029.87 104.45
  Q 1030.94 103.89 1030.84 105.09
  L 1030.81 105.48
  Q 1030.72 106.59 1029.79 107.21
  Q 1026.71 109.22 1023.55 109.20
  Q 1013.88 109.12 1013.09 99.34
  C 1012.02 86.09 1030.11 84.60 1030.98 97.11
  A 1.04 1.04 0.0 0 1 1029.94 98.22
  L 1017.02 98.24
  Z
  M 1016.42 96.29
  L 1027.92 96.21
  A 0.12 0.12 0.0 0 0 1028.04 96.09
  L 1028.04 96.03
  A 5.70 5.16 -0.4 0 0 1022.30 90.91
  L 1021.96 90.91
  A 5.70 5.16 -0.4 0 0 1016.30 96.11
  L 1016.30 96.17
  A 0.12 0.12 0.0 0 0 1016.42 96.29
  Z"
/>
<path fill="#ffffff" d="
  M 1037.83 92.96
  C 1040.76 89.42 1043.30 86.73 1047.90 90.00
  A 1.46 1.43 6.6 0 1 1048.40 90.62
  Q 1048.84 91.66 1048.32 92.36
  Q 1047.73 93.15 1046.91 92.59
  L 1045.19 91.42
  A 2.95 2.95 0.0 0 0 1041.92 91.38
  C 1039.30 93.07 1037.05 95.67 1037.17 99.11
  Q 1037.34 103.81 1037.16 108.11
  A 0.80 0.79 -88.9 0 1 1036.37 108.88
  L 1035.99 108.88
  A 0.95 0.95 0.0 0 1 1035.04 107.93
  L 1035.03 90.01
  A 1.19 1.17 84.4 0 1 1035.97 88.85
  L 1036.27 88.78
  A 0.64 0.64 0.0 0 1 1037.03 89.28
  Q 1037.36 90.97 1037.09 92.63
  A 0.42 0.42 0.0 0 0 1037.83 92.96
  Z"
/>
<path fill="#ffffff" d="
  M 1052.91 108.31
  L 1051.72 107.44
  A 1.22 1.21 17.2 0 1 1051.22 106.50
  C 1051.18 104.64 1052.13 103.81 1053.58 102.98
  Q 1054.22 102.61 1053.63 102.16
  Q 1053.01 101.68 1052.37 101.26
  C 1049.12 99.14 1049.46 94.15 1051.45 91.53
  Q 1053.27 89.14 1057.42 89.02
  Q 1062.97 88.86 1068.70 89.00
  A 1.02 1.02 0.0 0 1 1069.59 89.55
  L 1075.75 101.40
  A 0.61 0.61 0.0 0 0 1076.84 101.38
  L 1082.45 89.87
  Q 1082.98 88.78 1084.20 88.79
  Q 1084.54 88.80 1084.81 89.02
  A 0.84 0.83 33.6 0 1 1085.02 90.04
  L 1071.53 117.04
  Q 1071.19 117.72 1070.70 118.31
  Q 1069.73 119.46 1068.92 119.09
  Q 1068.28 118.80 1068.58 118.17
  L 1074.56 105.70
  A 1.98 1.98 0.0 0 0 1074.54 103.95
  L 1067.53 90.47
  A 0.75 0.75 0.0 0 0 1066.34 90.28
  Q 1065.14 91.45 1063.53 90.83
  A 0.45 0.45 0.0 0 0 1063.01 91.53
  Q 1064.28 93.20 1064.49 95.25
  C 1065.15 101.93 1059.72 102.81 1054.86 103.95
  A 1.55 1.55 0.0 0 0 1053.68 105.24
  Q 1053.44 106.94 1055.09 107.15
  Q 1058.79 107.62 1062.11 108.03
  C 1063.62 108.21 1065.27 109.22 1065.83 110.70
  C 1069.01 119.02 1057.87 119.47 1053.23 118.44
  C 1047.59 117.19 1046.86 110.43 1052.79 108.95
  Q 1053.53 108.76 1052.91 108.31
  Z
  M 1062.30 95.99
  A 5.03 5.03 0.0 0 0 1057.27 90.96
  A 5.03 5.03 0.0 0 0 1052.24 95.99
  A 5.03 5.03 0.0 0 0 1057.27 101.02
  A 5.03 5.03 0.0 0 0 1062.30 95.99
  Z
  M 1064.2251 113.0628
  A 6.70 3.56 -2.2 0 0 1057.3933 109.7626
  A 6.70 3.56 -2.2 0 0 1050.8349 113.5772
  A 6.70 3.56 -2.2 0 0 1057.6667 116.8774
  A 6.70 3.56 -2.2 0 0 1064.2251 113.0628
  Z"
/>
<path fill="#018cd1" d="
  M 1095.61 94.73
  Q 1096.14 94.56 1097.07 94.70
  Q 1097.62 95.97 1098.66 96.82
  Q 1099.51 97.51 1099.23 96.45
  L 1098.75 94.72
  Q 1098.60 94.15 1098.87 93.63
  Q 1099.34 92.73 1099.18 91.70
  Q 1099.07 90.97 1098.36 90.78
  Q 1096.75 90.35 1095.02 90.62
  A 0.91 0.90 -4.8 0 0 1094.25 91.52
  L 1094.29 96.69
  Q 1094.30 98.27 1093.30 97.04
  Q 1091.58 94.94 1092.25 92.18
  C 1093.26 88.01 1099.37 87.73 1101.27 91.39
  C 1103.30 95.29 1099.60 99.28 1095.48 98.31
  Q 1094.88 98.17 1094.89 97.56
  Q 1094.90 96.13 1095.61 94.73
  Z"
/>
<path fill="#ffffff" d="
  M 854.67 127.80
  L 854.66 146.52
  Q 854.66 147.46 853.73 147.45
  L 847.69 147.39
  A 0.96 0.95 0.3 0 1 846.74 146.44
  L 846.75 89.74
  A 0.53 0.52 89.4 0 1 847.26 89.21
  Q 853.92 89.13 861.00 89.34
  C 870.81 89.64 879.35 93.43 881.41 103.85
  C 884.65 120.17 872.05 132.66 855.45 127.23
  Q 854.67 126.98 854.67 127.80
  Z
  M 855.24 120.27
  C 875.62 129.12 880.99 97.66 863.48 96.84
  Q 859.53 96.66 855.32 96.60
  Q 854.68 96.59 854.68 97.23
  L 854.69 119.44
  Q 854.69 120.03 855.24 120.27
  Z"
/>
<path fill="#ffffff" d="
  M 795.00 124.38
  Q 794.54 123.90 793.97 123.54
  A 1.74 1.69 1.3 0 1 793.41 122.97
  Q 790.51 118.08 796.82 115.31
  Q 797.98 114.80 796.89 114.15
  C 792.33 111.44 789.98 107.78 790.08 102.21
  C 790.24 93.42 797.97 89.47 805.76 89.33
  Q 814.06 89.18 822.06 89.23
  Q 822.80 89.23 822.80 89.98
  L 822.82 95.02
  Q 822.82 95.61 822.23 95.59
  L 816.70 95.48
  A 0.56 0.56 0.0 0 0 816.25 96.40
  Q 821.07 102.27 817.91 108.89
  C 814.91 115.17 809.01 116.02 802.85 117.06
  Q 801.51 117.28 800.45 118.22
  A 1.71 1.70 -46.5 0 0 800.51 120.83
  Q 802.04 122.07 804.02 122.58
  Q 808.74 123.78 813.38 124.83
  Q 819.54 126.21 821.81 130.86
  C 823.71 134.75 822.88 140.06 819.53 143.01
  C 812.79 148.96 798.23 148.88 791.13 143.86
  C 783.55 138.49 785.79 128.03 794.66 125.60
  Q 795.85 125.27 795.00 124.38
  Z
  M 811.9446 102.5338
  A 7.38 6.83 -3.7 0 0 804.1392 96.1942
  A 7.38 6.83 -3.7 0 0 797.2154 103.4862
  A 7.38 6.83 -3.7 0 0 805.0208 109.8258
  A 7.38 6.83 -3.7 0 0 811.9446 102.5338
  Z
  M 815.1247 135.8448
  A 10.66 5.81 1.8 0 0 804.6525 129.7029
  A 10.66 5.81 1.8 0 0 793.8153 135.1752
  A 10.66 5.81 1.8 0 0 804.2875 141.3171
  A 10.66 5.81 1.8 0 0 815.1247 135.8448
  Z"
/>
<rect fill="#ffffff" x="-3.95" y="-19.31" transform="translate(832.58,108.52) rotate(0.1)" width="7.90" height="38.62" rx="0.56"/>
<path fill="#ffffff" d="
  M 960.8895 108.7749
  A 20.78 19.84 -0.4 0 1 940.2485 128.7595
  A 20.78 19.84 -0.4 0 1 919.3305 109.0651
  A 20.78 19.84 -0.4 0 1 939.9715 89.0805
  A 20.78 19.84 -0.4 0 1 960.8895 108.7749
  Z
  M 952.6361 110.8469
  A 12.74 12.57 9.2 0 0 942.0697 96.4017
  A 12.74 12.57 9.2 0 0 927.4839 106.7731
  A 12.74 12.57 9.2 0 0 938.0503 121.2183
  A 12.74 12.57 9.2 0 0 952.6361 110.8469
  Z"
/>
<path fill="#018cd1" d="
  M 973.89 96.31
  A 0.13 0.13 0.0 0 1 973.76 96.18
  L 973.76 96.12
  A 5.73 5.19 -0.5 0 1 979.45 90.88
  L 979.77 90.88
  A 5.73 5.19 -0.5 0 1 985.54 96.02
  L 985.54 96.08
  A 0.13 0.13 0.0 0 1 985.41 96.21
  L 973.89 96.31
  Z"
/>
<path fill="#018cd1" d="
  M 1016.42 96.29
  A 0.12 0.12 0.0 0 1 1016.30 96.17
  L 1016.30 96.11
  A 5.70 5.16 -0.4 0 1 1021.96 90.91
  L 1022.30 90.91
  A 5.70 5.16 -0.4 0 1 1028.04 96.03
  L 1028.04 96.09
  A 0.12 0.12 0.0 0 1 1027.92 96.21
  L 1016.42 96.29
  Z"
/>
<circle fill="#018cd1" cx="1057.27" cy="95.99" r="5.03"/>
<path fill="#00a0e5" d="
  M 1097.07 94.70
  Q 1096.14 94.56 1095.61 94.73
  Q 1095.78 94.37 1095.80 94.08
  Q 1095.82 93.72 1095.61 93.38
  Q 1095.04 92.45 1095.85 91.70
  A 1.20 1.20 0.0 0 1 1097.87 92.68
  Q 1097.80 93.58 1096.70 93.80
  Q 1095.99 93.95 1097.07 94.70
  Z"
/>
<ellipse fill="#018cd1" cx="0.00" cy="0.00" transform="translate(804.58,103.01) rotate(-3.7)" rx="7.38" ry="6.83"/>
<ellipse fill="#018cd1" cx="0.00" cy="0.00" transform="translate(940.06,108.81) rotate(9.2)" rx="12.74" ry="12.57"/>
<path fill="#018cd1" d="
  M 863.48 96.84
  C 880.99 97.66 875.62 129.12 855.24 120.27
  Q 854.69 120.03 854.69 119.44
  L 854.68 97.23
  Q 854.68 96.59 855.32 96.60
  Q 859.53 96.66 863.48 96.84
  Z"
/>
<ellipse fill="#018cd1" cx="0.00" cy="0.00" transform="translate(1057.53,113.32) rotate(-2.2)" rx="6.70" ry="3.56"/>
<path fill="#c1ecff" d="
  M 72.60 129.72
  L 73.13 191.00
  L 0.00 191.00
  L 0.00 127.77
  L 71.34 127.82
  A 0.99 0.97 -17.3 0 1 72.14 128.23
  Q 72.55 128.81 72.60 129.72
  Z"
/>
<path fill="#00a0e5" d="
  M 435.82 191.00
  L 363.92 191.00
  L 363.79 128.02
  L 365.31 127.55
  A 0.94 0.90 36.8 0 1 365.64 127.51
  C 368.61 127.57 371.55 127.88 374.52 127.89
  Q 404.27 128.04 434.61 127.85
  Q 436.84 127.83 436.82 130.05
  Q 436.57 157.37 436.71 180.92
  Q 436.72 183.17 436.96 186.15
  Q 437.22 189.55 435.82 191.00
  Z"
/>
<path fill="#8bd8f7" d="
  M 72.99 127.78
  L 146.09 127.78
  L 217.96 127.79
  L 290.03 127.87
  Q 291.01 128.10 291.61 127.86
  C 291.41 130.43 291.07 132.89 291.09 135.38
  Q 291.29 158.82 291.11 182.25
  Q 291.08 186.71 291.87 191.00
  L 73.13 191.00
  L 72.60 129.72
  L 72.99 127.78
  Z"
/>
<path fill="#5fc9f3" d="
  M 363.79 128.02
  L 363.92 191.00
  L 291.87 191.00
  Q 291.08 186.71 291.11 182.25
  Q 291.29 158.82 291.09 135.38
  C 291.07 132.89 291.41 130.43 291.61 127.86
  L 363.38 127.79
  Q 363.50 127.79 363.59 127.86
  Q 363.71 127.95 363.79 128.02
  Z"
/>
<ellipse fill="#018cd1" cx="0.00" cy="0.00" transform="translate(804.47,135.51) rotate(1.8)" rx="10.66" ry="5.81"/>
</svg>
